<?xml version="1.0" encoding="UTF-8" standalone="no"?>
<!-- Created with Inkscape (http://www.inkscape.org/) -->

<svg
   width="16.89427mm"
   height="16.894285mm"
   viewBox="0 0 16.89427 16.894285"
   version="1.1"
   id="svg1"
   xml:space="preserve"
   xmlns:xlink="http://www.w3.org/1999/xlink"
   xmlns="http://www.w3.org/2000/svg"
   xmlns:svg="http://www.w3.org/2000/svg"><defs
     id="defs1"><linearGradient
       id="linearGradient262165"><stop
         style="stop-color:#f0f0f0;stop-opacity:1;"
         offset="0"
         id="stop262165" /><stop
         style="stop-color:#d6d6d6;stop-opacity:1;"
         offset="0.03013898"
         id="stop262166" /></linearGradient><linearGradient
       id="linearGradient262163"><stop
         style="stop-color:#f0f0f0;stop-opacity:1;"
         offset="0"
         id="stop262163" /><stop
         style="stop-color:#d6d7d7;stop-opacity:1;"
         offset="0.0275283"
         id="stop262164" /></linearGradient><linearGradient
       xlink:href="#linearGradient262165"
       id="linearGradient262175"
       gradientUnits="userSpaceOnUse"
       gradientTransform="translate(54.942575,1.4009441)"
       x1="100.15394"
       y1="131.79489"
       x2="107.51643"
       y2="131.9232" /><linearGradient
       xlink:href="#linearGradient262163"
       id="linearGradient262176"
       gradientUnits="userSpaceOnUse"
       gradientTransform="translate(54.942575,1.4009441)"
       x1="100.18349"
       y1="125.90163"
       x2="106.83224"
       y2="125.92664" /></defs><g
     id="layer1"
     transform="translate(-146.75948,-122.36744)"><circle
       style="fill:#34004b;fill-opacity:1;fill-rule:nonzero;stroke-width:0.264583"
       id="path262169-6"
       cx="155.20662"
       cy="130.81458"
       r="8.4471397" /><path
       id="rect262153-9-1"
       style="fill:#f2f2f2;fill-opacity:1;stroke-width:0.264583"
       d="m 155.12405,137.42468 c -5.1e-4,5.3e-4 -0.001,0.001 -0.002,0.002 1.9e-4,7.1e-4 0.001,-0.001 0.002,-0.002 z" /><path
       id="path262159-3-5"
       style="fill:url(#linearGradient262175);fill-opacity:1;stroke-width:0.264583"
       d="m 149.46652,129.22363 c -0.44632,0.50836 -0.88923,1.01983 -1.32912,1.53376 2.5394,1.98363 4.80975,4.12335 6.98666,6.66729 2.49651,-2.5524 4.96059,-4.58304 7.33495,-6.7076 -0.41413,-0.48315 -0.82816,-0.96638 -1.2423,-1.44953 -2.05282,1.5624 -4.23697,3.41366 -6.05337,5.30201 -1.58406,-1.78201 -3.76239,-3.77636 -5.69682,-5.34593 z" /><path
       style="fill:url(#linearGradient262176);fill-opacity:1;stroke-width:0.264583"
       d="m 160.57903,125.68689 c -1.85822,1.31958 -3.8249,2.90255 -5.37333,4.58939 -1.47642,-1.68235 -3.56931,-3.47282 -4.98522,-4.49585 -0.0798,0.4083 -0.15135,1.4662 -0.0899,2.53369 1.97243,1.52912 2.70885,2.15396 5.15576,4.64675 2.52732,-2.59585 3.33894,-3.28999 5.2927,-4.74028 0.0829,-0.94098 0.0768,-2.0576 1e-5,-2.5337 z"
       id="path262158-1-5" /></g></svg>
